<?xml version="1.0" encoding="iso-8859-1"?>
<!-- Generator: Adobe Illustrator 19.0.0, SVG Export Plug-In . SVG Version: 6.00 Build 0)  -->
<svg xmlns="http://www.w3.org/2000/svg" xmlns:xlink="http://www.w3.org/1999/xlink" version="1.1" id="Capa_1" x="0px" y="0px" viewBox="0 0 512 512" style="enable-background:new 0 0 512 512;" xml:space="preserve" width="512px" height="512px">
<g>
	<g>
		<path d="M395.341,442.351H116.659c-4.188,0-7.582,3.394-7.582,7.582c0,4.187,3.394,7.582,7.582,7.582h278.682    c4.188,0,7.582-3.395,7.582-7.582S399.529,442.351,395.341,442.351z" fill="#7f66ff"/>
	</g>
</g>
<g>
	<g>
		<path d="M395.341,171.297H277.23c-4.188,0-7.582,3.395-7.582,7.582c0,4.188,3.394,7.582,7.582,7.582h118.111    c4.188,0,7.582-3.395,7.582-7.582C402.923,174.692,399.529,171.297,395.341,171.297z" fill="#7f66ff"/>
	</g>
</g>
<g>
	<g>
		<path d="M395.341,264.681H277.23c-4.188,0-7.582,3.395-7.582,7.582s3.394,7.582,7.582,7.582h118.111    c4.188,0,7.582-3.395,7.582-7.582S399.529,264.681,395.341,264.681z" fill="#7f66ff"/>
	</g>
</g>
<g>
	<g>
		<path d="M395.341,358.065H277.23c-4.188,0-7.582,3.395-7.582,7.582s3.394,7.582,7.582,7.582h118.111    c4.188,0,7.582-3.395,7.582-7.582S399.529,358.065,395.341,358.065z" fill="#7f66ff"/>
	</g>
</g>
<g>
	<g>
		<path d="M453.037,138.391c-0.003-0.085-0.007-0.169-0.013-0.254c-0.022-0.325-0.057-0.647-0.12-0.964c0-0.002,0-0.004-0.001-0.006    c-0.064-0.322-0.156-0.636-0.261-0.946c-0.026-0.077-0.054-0.153-0.082-0.23c-0.111-0.296-0.234-0.587-0.382-0.868    c-0.006-0.012-0.011-0.024-0.017-0.036c-0.155-0.292-0.335-0.569-0.528-0.839c-0.047-0.065-0.094-0.13-0.143-0.194    c-0.204-0.268-0.42-0.528-0.661-0.769L319.764,2.221c-0.24-0.24-0.498-0.455-0.765-0.658c-0.067-0.051-0.134-0.101-0.203-0.15    c-0.268-0.191-0.542-0.369-0.831-0.523c-0.019-0.01-0.039-0.017-0.058-0.027c-0.272-0.142-0.555-0.263-0.842-0.371    c-0.081-0.031-0.163-0.06-0.245-0.088c-0.305-0.103-0.614-0.193-0.93-0.256c-0.016-0.003-0.032-0.004-0.048-0.007    c-0.302-0.058-0.609-0.093-0.919-0.114c-0.092-0.006-0.185-0.011-0.277-0.014C314.565,0.009,314.485,0,314.403,0H91.918    C73.739,0,58.95,14.789,58.95,32.968v342.765c0,4.187,3.394,7.582,7.582,7.582c4.188,0,7.582-3.395,7.582-7.582V32.968    c0-9.817,7.987-17.804,17.804-17.804H306.82v107.57c0,12.956,10.54,23.496,23.496,23.496h107.57v41.807    c0,4.187,3.394,7.582,7.582,7.582s7.582-3.395,7.582-7.582v-49.39C453.05,138.561,453.04,138.477,453.037,138.391z     M330.316,131.066c-4.594,0-8.331-3.738-8.331-8.332V25.887l105.178,105.179H330.316z" fill="#7f66ff"/>
	</g>
</g>
<g>
	<g>
		<path d="M445.468,228.093c-4.188,0-7.582,3.395-7.582,7.582v243.357c0,9.817-7.987,17.804-17.804,17.804H91.918    c-9.817,0-17.804-7.987-17.804-17.804v-54.647c0-4.187-3.394-7.582-7.582-7.582c-4.188,0-7.582,3.395-7.582,7.582v54.647    C58.95,497.211,73.739,512,91.918,512h328.163c18.179,0,32.968-14.789,32.968-32.968V235.675    C453.05,231.487,449.656,228.093,445.468,228.093z" fill="#7f66ff"/>
	</g>
</g>
<g>
	<g>
		<g>
			<path d="M173.088,164.668c-1.836-1.421-4.229-1.91-6.475-1.327c-18.82,4.889-29.184,16.9-29.184,33.821     c0,21.259,14.997,30.554,28.06,36.277c0.964,0.422,1.988,0.63,3.009,0.63c1.437,0,2.866-0.412,4.105-1.221     c2.119-1.385,3.396-3.746,3.396-6.278v-55.969C175.999,168.279,174.924,166.089,173.088,164.668z M160.999,213.962     c-6.169-4.479-8.569-9.54-8.569-16.8c0-4.758,1.067-10.979,8.569-15.535V213.962z" fill="#7f66ff"/>
			<path d="M241.664,253.548c-11.048-10.273-25.001-16.837-38.867-22.18v-54.464c8.127,1.623,13.79,4.455,18.558,6.839     c4.801,2.401,8.947,4.475,13.839,4.475c14.336,0,22.265-15.743,22.265-26.626c0-7.493-4.118-17.91-23.738-24.986     c-8.692-3.134-19.724-5.337-31.075-6.254c-1.252-10.335-10.079-18.37-20.747-18.37c-11.507,0-20.873,9.349-20.9,20.85     c-36.405,8.182-57.126,32.567-57.126,67.686c0,44.614,33.745,59.92,57.126,68.629v65.551     c-10.087-3.464-16.771-9.147-22.374-13.91c-5.635-4.791-10.959-9.317-17.855-9.317c-12.706,0-22.937,14.566-22.937,26.627     c0,18.975,25.121,41.065,63.238,46.065c0.892,10.708,9.893,19.15,20.828,19.15c11.35,0,20.616-9.094,20.891-20.38     c17.202-3.551,31.582-11.169,41.865-22.236c12.503-13.455,18.843-31.333,18.843-53.137     C263.498,284.877,256.356,267.209,241.664,253.548z M194.239,369.204c-3.696,0.527-6.441,3.692-6.441,7.425v5.784     c0,3.254-2.646,5.9-5.899,5.9c-3.254,0-5.9-2.647-5.9-5.9v-5.028c0-3.929-3.031-7.191-6.949-7.48     c-36.374-2.676-56.217-22.416-56.217-31.808c0-4.781,4.673-11.627,7.937-11.627c1.381,0,5.288,3.321,8.138,5.746     c7.579,6.443,19.031,16.18,38.321,19.491c2.183,0.373,4.413-0.233,6.103-1.658s2.666-3.523,2.666-5.734v-80.406     c0-3.153-1.973-5.97-4.937-7.048c-28.553-10.385-52.189-21.792-52.189-56.343c0-16.017,5.08-28.861,15.099-38.174     c8.562-7.959,20.927-13.47,35.759-15.938c3.618-0.602,6.269-3.731,6.269-7.398v-6.126c0-3.254,2.646-5.9,5.9-5.9     c3.253,0,5.899,2.647,5.899,5.9v4.564c0,4.048,3.212,7.366,7.258,7.496c25.252,0.815,47.403,8.595,47.403,16.651     c0,3.353-2.896,11.626-7.265,11.626c-1.35,0-4.157-1.405-7.13-2.891c-6.595-3.298-16.562-8.283-32.198-9.472     c-2.082-0.156-4.136,0.56-5.667,1.978c-1.531,1.419-2.401,3.413-2.401,5.501v68.225c0,3.141,1.958,5.95,4.905,7.037     c29.403,10.84,55.796,23.89,55.796,63.964C248.499,342.323,229.229,364.215,194.239,369.204z" fill="#7f66ff"/>
			<path d="M198.397,267.894c-2.32-1.053-5.017-0.856-7.161,0.526c-2.142,1.381-3.437,3.755-3.437,6.304v69.25     c0,2.283,1.041,4.443,2.827,5.866c1.341,1.068,2.991,1.634,4.673,1.634c0.559,0,1.122-0.063,1.677-0.19     c21.26-4.877,32.968-19.094,32.968-40.031C229.944,285.504,213.085,274.556,198.397,267.894z M202.799,333.358v-45.895     c8.597,6.107,12.144,13.384,12.145,23.79C214.944,321.697,210.952,328.997,202.799,333.358z" fill="#7f66ff"/>
		</g>
	</g>
</g>
<g>
</g>
<g>
</g>
<g>
</g>
<g>
</g>
<g>
</g>
<g>
</g>
<g>
</g>
<g>
</g>
<g>
</g>
<g>
</g>
<g>
</g>
<g>
</g>
<g>
</g>
<g>
</g>
<g>
</g>
</svg>
