<?xml version="1.0" encoding="iso-8859-1"?>
<!-- Generator: Adobe Illustrator 19.0.0, SVG Export Plug-In . SVG Version: 6.00 Build 0)  -->
<svg xmlns="http://www.w3.org/2000/svg" xmlns:xlink="http://www.w3.org/1999/xlink" version="1.1" id="Capa_1" x="0px" y="0px" viewBox="0 0 512.001 512.001" style="enable-background:new 0 0 512.001 512.001;" xml:space="preserve" width="512px" height="512px">
<g>
	<g>
		<path d="M504.71,248.709H376.827c-1.706-28.612-13.458-56.731-35.271-78.544c-21.778-21.778-49.841-33.527-78.404-35.263V7.291    c0-4.026-3.264-7.291-7.29-7.291s-7.291,3.264-7.291,7.291v127.595c-28.66,1.676-56.835,13.43-78.684,35.28    c-21.814,21.814-33.565,49.933-35.271,78.544H7.292c-4.027-0.001-7.291,3.264-7.291,7.29s3.264,7.291,7.291,7.291h127.323    c1.706,28.612,13.458,56.731,35.271,78.544c21.849,21.849,50.024,33.603,78.684,35.28V504.71c0,4.026,3.264,7.291,7.291,7.291    c4.027,0,7.29-3.264,7.29-7.291V377.098c28.564-1.736,56.626-13.485,78.404-35.263c21.814-21.814,33.565-49.933,35.271-78.544    h127.883c4.026,0,7.291-3.264,7.291-7.291C512,251.973,508.737,248.709,504.71,248.709z M331.246,331.525    c-41.644,41.644-109.405,41.644-151.049,0c-41.644-41.645-41.644-109.405,0-151.049c20.822-20.822,48.173-31.233,75.525-31.233    s54.703,10.411,75.525,31.233C372.89,222.12,372.89,289.88,331.246,331.525z" fill="#7f66ff"/>
	</g>
</g>
<g>
	<g>
		<path d="M476.757,271.5c-4.004-0.402-7.582,2.512-7.989,6.518c-5.005,49.359-26.312,94.11-61.616,129.414    c-35.304,35.303-80.054,56.609-129.413,61.615c-4.006,0.406-6.924,3.983-6.518,7.989c0.381,3.756,3.549,6.555,7.244,6.555    c0.246,0,0.495-0.012,0.745-0.038c52.739-5.349,100.546-28.106,138.252-65.812c37.707-37.707,60.464-85.514,65.813-138.253    C483.681,275.483,480.763,271.906,476.757,271.5z" fill="#7f66ff"/>
	</g>
</g>
<g>
	<g>
		<path d="M483.238,232.155c-5.416-52.599-28.161-100.283-65.776-137.897c-37.706-37.706-85.513-60.463-138.252-65.812    c-4.01-0.406-7.582,2.512-7.989,6.518c-0.406,4.006,2.512,7.583,6.518,7.989c49.359,5.006,94.109,26.311,129.413,61.615    c35.218,35.218,56.512,79.853,61.582,129.081c0.386,3.752,3.552,6.544,7.243,6.544c0.25,0,0.502-0.013,0.756-0.039    C480.739,239.742,483.651,236.16,483.238,232.155z" fill="#7f66ff"/>
	</g>
</g>
<g>
	<g>
		<path d="M239.849,34.99c-0.413-4.005-3.999-6.911-8-6.505c-52.588,5.422-100.263,28.166-137.87,65.773    c-37.706,37.706-60.463,85.514-65.812,138.253c-0.407,4.006,2.512,7.583,6.518,7.99c0.25,0.025,0.498,0.038,0.745,0.038    c3.695,0,6.863-2.799,7.244-6.555c5.006-49.36,26.311-94.111,61.615-129.415C139.5,69.358,184.127,48.065,233.344,42.99    C237.35,42.577,240.261,38.995,239.849,34.99z" fill="#7f66ff"/>
	</g>
</g>
<g>
	<g>
		<path d="M234.436,469.12c-49.65-4.864-94.654-26.196-130.148-61.688c-35.303-35.304-56.609-80.054-61.615-129.414    c-0.406-4.005-3.978-6.921-7.989-6.518c-4.006,0.406-6.924,3.983-6.518,7.989c5.349,52.739,28.106,100.546,65.812,138.253    c37.909,37.908,85.987,60.693,139.036,65.89c0.242,0.024,0.482,0.035,0.72,0.035c3.706,0,6.879-2.815,7.247-6.58    C241.373,473.08,238.443,469.513,234.436,469.12z" fill="#7f66ff"/>
	</g>
</g>
<g>
	<g>
		<path d="M239.82,86.811c-0.544-3.989-4.217-6.787-8.208-6.239C153.26,91.243,91.042,153.413,80.311,231.758    c-0.546,3.989,2.245,7.666,6.234,8.212c0.336,0.046,0.669,0.068,0.998,0.068c3.587,0,6.714-2.648,7.214-6.302    c9.846-71.883,66.932-128.926,138.823-138.717C237.569,94.476,240.363,90.801,239.82,86.811z" fill="#7f66ff"/>
	</g>
</g>
<g>
	<g>
		<path d="M233.771,417.006c-72.213-9.748-129.404-66.997-139.079-139.22c-0.535-3.991-4.205-6.796-8.194-6.258    c-3.991,0.534-6.793,4.203-6.258,8.194c10.545,78.715,72.877,141.11,151.581,151.734c0.331,0.045,0.66,0.066,0.984,0.066    c3.593,0,6.722-2.657,7.216-6.316C240.56,421.216,237.762,417.544,233.771,417.006z" fill="#7f66ff"/>
	</g>
</g>
<g>
	<g>
		<path d="M424.943,271.528c-3.995-0.537-7.659,2.268-8.194,6.258c-9.684,72.291-66.936,129.549-139.227,139.24    c-3.991,0.535-6.792,4.204-6.257,8.195c0.491,3.662,3.621,6.323,7.217,6.323c0.322,0,0.649-0.021,0.978-0.066    c78.788-10.562,141.187-72.966,151.741-151.756C431.735,275.731,428.934,272.063,424.943,271.528z" fill="#7f66ff"/>
	</g>
</g>
<g>
	<g>
		<path d="M431.153,231.919C420.459,153.31,358.073,91.052,279.442,80.52c-3.992-0.539-7.66,2.267-8.194,6.258    c-0.534,3.991,2.267,7.659,6.258,8.194c72.146,9.664,129.386,66.787,139.198,138.912c0.497,3.657,3.625,6.309,7.215,6.309    c0.327,0,0.658-0.022,0.992-0.067C428.901,239.583,431.695,235.909,431.153,231.919z" fill="#7f66ff"/>
	</g>
</g>
<g>
	<g>
		<path d="M261.199,246.322v-33.984c11.719,0.837,16.071,6.194,20.089,6.194c5.022,0,7.366-6.361,7.366-9.542    c0-8.204-16.071-11.719-27.455-12.054v-4.52c0-2.009-2.511-3.85-5.022-3.85c-2.846,0-4.855,1.841-4.855,3.85v4.855    c-15.904,1.674-31.808,10.044-31.808,31.138c0,21.428,16.741,27.455,31.808,32.812v39.341    c-17.076-1.339-21.596-13.058-27.12-13.058c-4.186,0-7.701,5.525-7.701,9.543c0,8.202,14.062,19.419,34.821,19.754v5.19    c0,2.009,2.009,3.85,4.855,3.85c2.511,0,5.022-1.841,5.022-3.85v-5.692c18.081-2.511,30.469-13.895,30.469-34.486    C291.668,259.045,275.764,251.679,261.199,246.322z M252.327,243.141c-8.873-3.348-16.072-6.864-16.071-16.406    c0-8.705,6.696-12.89,16.071-14.062V243.141z M260.195,300.227v-35.323c8.203,3.516,14.732,8.203,14.732,18.749    C274.927,293.196,269.235,298.553,260.195,300.227z" fill="#7f66ff"/>
	</g>
</g>
<g>
</g>
<g>
</g>
<g>
</g>
<g>
</g>
<g>
</g>
<g>
</g>
<g>
</g>
<g>
</g>
<g>
</g>
<g>
</g>
<g>
</g>
<g>
</g>
<g>
</g>
<g>
</g>
<g>
</g>
</svg>
